# xmcd
#
# Track frame offsets:
# 150
# 15845
# 30810
# 45275
# 61232
# 76402
# 91309
# 105099
# 119619
# 135002
# 150994
# 166602
# 181514
# 194514
# 208199
# 222899
# 239879
# 254157
# 270979
# 288452
# 302902
# 319977
#
# Disc length: 4477 seconds
#
#
# Revision: 0
# Processed by: cddbd v1.5.2PL0 Copyright (c) Steve Scherf et al.
# Submitted via: FreeRIP 2.951 
#
DISCID=19117b16
DTITLE=Forró da Band - Especial
DYEAR=2006
DGENRE=Forró
TTITLE0=Tanto Amor
TTITLE1=Briga de amor
TTITLE2=É hoje
TTITLE3=Pagina virada
TTITLE4=Ze coré cabaré da loira
TTITLE5=Fogo no rabo
TTITLE6=Cachaça mulher e gaia
TTITLE7=Toma na garrafinha
TTITLE8=Perdoa-me
TTITLE9=Você não vale nada
TTITLE10=Estando com ela, pensando em ti
TTITLE11=Poder do teu olhar
TTITLE12=Solidão de novo
TTITLE13=Don juan
TTITLE14=Você não tá com nada
TTITLE15=Pedaço de pano
TTITLE16=Bebo pra cachorro
TTITLE17=Me da tu pra eu
TTITLE18=Pega fogo cabaré
TTITLE19=Papel de pão
TTITLE20=Tome gemada
TTITLE21=Minhas cachaças
EXTD=NELDVD:2007
EXTT0=
EXTT1=
EXTT2=
EXTT3=
EXTT4=
EXTT5=
EXTT6=
EXTT7=
EXTT8=
EXTT9=
EXTT10=
EXTT11=
EXTT12=
EXTT13=
EXTT14=
EXTT15=
EXTT16=
EXTT17=
EXTT18=
EXTT19=
EXTT20=
EXTT21=
PLAYORDER=
